<svg xmlns="http://www.w3.org/2000/svg" version="1.1" xmlns:xlink="http://www.w3.org/1999/xlink" xmlns:svgjs="http://svgjs.dev/svgjs" width="2000" height="2250" viewBox="0 0 2000 2250"><g transform="matrix(1,0,0,1,0,0.0007531249998464773)"><svg viewBox="0 0 320 360" data-background-color="#ffffff" preserveAspectRatio="xMidYMid meet" height="2250" width="2000" xmlns="http://www.w3.org/2000/svg" xmlns:xlink="http://www.w3.org/1999/xlink"><g id="tight-bounds" transform="matrix(1,0,0,1,0,-0.00012049999997998384)"><svg viewBox="0 0 320 360" height="360" width="320"><g><svg></svg></g><g><svg viewBox="0 0 320 360" height="360" width="320"><g><path transform="translate(-76.07486,-56.3133) scale(4.7215,4.7215)" d="M24.473 37.513l0.604-1.109c4.807-8.829 14.163-14.821 24.923-14.82 10.763 0 20.122 5.995 24.928 14.827l0.604 1.11 1.731-6.637 6.572 1.686-0.562-1.015c-6.478-11.702-18.949-19.628-33.273-19.628-14.324 0-26.794 7.926-33.274 19.628l-0.562 1.014 6.579-1.685zM50 12.927c13.521 0 25.324 7.262 31.785 18.085l-5.238-1.343-1.359 5.212c-5.129-8.559-14.483-14.297-25.188-14.297-10.701 0-20.053 5.735-25.182 14.289l-1.358-5.205-5.245 1.343c6.461-10.823 18.265-18.084 31.785-18.084zM75.527 62.587l-0.604 1.109c-4.807 8.83-14.163 14.821-24.923 14.821-10.763 0-20.122-5.994-24.928-14.827l-0.604-1.109-1.731 6.636-6.573-1.686 0.562 1.015c6.479 11.701 18.949 19.628 33.274 19.628 14.324 0 26.795-7.927 33.274-19.628l0.562-1.014-6.579 1.685zM50 87.174c-13.521 0-25.324-7.262-31.785-18.085l5.237 1.344 1.36-5.212c5.129 8.557 14.483 14.296 25.188 14.296 10.702 0 20.053-5.735 25.183-14.29l1.357 5.205 5.245-1.343c-6.461 10.822-18.264 18.085-31.785 18.085z" fill="#ea3c12" fill-rule="nonzero" stroke="none" stroke-width="1" stroke-linecap="butt" stroke-linejoin="miter" stroke-miterlimit="10" stroke-dasharray="" stroke-dashoffset="0" font-family="none" font-weight="none" font-size="none" text-anchor="none" style="mix-blend-mode: normal" data-fill-palette-color="tertiary"></path></g><g transform="matrix(1,0,0,1,70.08999999999999,90.08999999999999)"><svg viewBox="0 0 179.82000000000002 179.82000000000002" height="179.82000000000002" width="179.82000000000002"><g><svg viewBox="0 0 179.82000000000002 179.82000000000002" height="179.82000000000002" width="179.82000000000002"><g><svg viewBox="0 0 179.82000000000002 179.82000000000002" height="179.82000000000002" width="179.82000000000002"><g id="textblocktransform"><svg viewBox="0 0 179.82000000000002 179.82000000000002" height="179.82000000000002" width="179.82000000000002" id="textblock"><g><svg viewBox="0 0 179.82000000000002 179.82000000000002" height="179.82000000000002" width="179.82000000000002"><g transform="matrix(1,0,0,1,36.08234481031149,36.20251530731139)"><svg viewBox="0 0 107.65531037937704 107.41496938537725" height="107.41496938537725" width="107.65531037937704"><g id="icon-0"><svg xmlns="http://www.w3.org/2000/svg" xmlns:xlink="http://www.w3.org/1999/xlink" version="1.1" x="0" y="0" viewBox="10.036 9.757 80.179 80" style="enable-background:new 0 0 100 100;" xml:space="preserve" height="107.41496938537725" width="107.65531037937704" class="icon-xg-0" data-fill-palette-color="accent" id="xg-0"><path d="M89.214 19.602H70.301V13.1c0-1.843-1.474-3.343-3.285-3.343H33.234c-1.812 0-3.285 1.5-3.285 3.343v6.502H11.036c-0.552 0-1 0.447-1 1v29.289c0 0.553 0.448 1 1 1h1.527v37.866c0 0.553 0.448 1 1 1h73.125c0.552 0 1-0.447 1-1V50.891h1.527c0.552 0 1-0.447 1-1V20.602C90.214 20.049 89.767 19.602 89.214 19.602zM31.949 13.1c0-0.74 0.577-1.343 1.285-1.343h33.781c0.708 0 1.285 0.603 1.285 1.343v6.502H31.949V13.1zM85.688 87.757H14.562V50.891h9.564v4.436c0 0.553 0.448 1 1 1h8.695c0.552 0 1-0.447 1-1v-4.436h30.606v4.436c0 0.553 0.448 1 1 1h8.695c0.552 0 1-0.447 1-1v-4.436h9.564V87.757zM26.126 54.326v-9.627h6.695v9.627H26.126zM67.428 54.326v-9.627h6.695v9.627H67.428zM88.214 48.891H76.124v-5.191c0-0.553-0.448-1-1-1h-8.695c-0.552 0-1 0.447-1 1v5.191H34.822v-5.191c0-0.553-0.448-1-1-1h-8.695c-0.552 0-1 0.447-1 1v5.191H12.036V21.602h76.179V48.891z" fill="#ea9937" data-fill-palette-color="accent"></path><path d="M70.457 78.492l-1.114 1.114V60.586c0-0.553-0.448-1-1-1s-1 0.447-1 1v19.021l-1.115-1.115c-0.391-0.391-1.023-0.391-1.414 0s-0.391 1.023 0 1.414l2.822 2.821c0.195 0.195 0.451 0.293 0.707 0.293s0.512-0.098 0.707-0.293l2.821-2.821c0.391-0.391 0.391-1.023 0-1.414S70.848 78.102 70.457 78.492z" fill="#ea9937" data-fill-palette-color="accent"></path><path d="M32.614 59.879c-0.375-0.375-1.039-0.375-1.414 0l-2.821 2.822c-0.391 0.391-0.391 1.023 0 1.414s1.024 0.391 1.414 0L30.907 63v19.02c0 0.553 0.448 1 1 1s1-0.447 1-1V63l1.115 1.115c0.195 0.195 0.451 0.293 0.707 0.293s0.512-0.098 0.707-0.293c0.391-0.391 0.391-1.023 0-1.414L32.614 59.879z" fill="#ea9937" data-fill-palette-color="accent"></path><path d="M52.604 59.482c-3.166-0.664-6.398-0.052-9.104 1.717-2.706 1.77-4.561 4.487-5.222 7.651-0.662 3.165-0.052 6.397 1.717 9.104 1.756 2.685 4.446 4.528 7.58 5.204 0.004 0.001 0.008 0.002 0.012 0.003 0.021 0.004 0.04 0.011 0.061 0.016 0.833 0.174 1.67 0.261 2.502 0.261 2.328 0 4.608-0.675 6.601-1.979 2.706-1.77 4.561-4.487 5.222-7.651 0.662-3.165 0.052-6.397-1.717-9.104C58.485 61.999 55.768 60.145 52.604 59.482zM58.493 77.335l-3.289-0.688c0.52-0.915 0.958-1.937 1.274-3.069l3.505 0.733C59.654 75.406 59.149 76.422 58.493 77.335zM39.898 70.109l3.505 0.733c-0.164 1.164-0.172 2.276-0.063 3.323l-3.289-0.688C39.816 72.378 39.761 71.244 39.898 70.109zM41.94 65.082l3.155 0.66c-0.534 0.984-0.994 2.094-1.329 3.338l-3.499-0.732C40.626 67.154 41.196 66.055 41.94 65.082zM55.09 71.448l-3.9-0.816 0.725-3.464 3.201 0.67C55.258 68.945 55.271 70.159 55.09 71.448zM52.283 65.406l0.725-3.465c0.489 0.78 1.232 2.161 1.725 3.977L52.283 65.406zM51.25 61.559l-0.728 3.479-2.455-0.514C49.246 63.053 50.491 62.076 51.25 61.559zM50.153 66.8l-0.725 3.464-3.88-0.812c0.352-1.255 0.844-2.361 1.419-3.319L50.153 66.8zM45.159 71.21l3.901 0.816-0.669 3.196-3.18-0.665C45.049 73.511 45.007 72.388 45.159 71.21zM48.023 76.983l-0.66 3.154c-0.568-0.898-1.23-2.151-1.699-3.647L48.023 76.983zM49.126 80.501l0.659-3.15 2.356 0.493C51.11 79.029 50.007 79.906 49.126 80.501zM50.153 75.59l0.669-3.196 3.893 0.814c-0.334 1.14-0.817 2.154-1.385 3.046L50.153 75.59zM56.853 71.817c0.191-1.274 0.214-2.475 0.118-3.591l3.157 0.66c0.292 1.19 0.374 2.425 0.224 3.663L56.853 71.817zM58.749 65.689c0.255 0.39 0.471 0.796 0.669 1.209l-2.722-0.569c-0.325-1.541-0.833-2.85-1.332-3.866C56.708 63.256 57.869 64.345 58.749 65.689zM44.485 62.706c1.34-0.876 2.833-1.404 4.377-1.594-0.861 0.73-1.845 1.724-2.756 3.002l-2.718-0.569C43.735 63.247 44.096 62.961 44.485 62.706zM41.501 76.969c-0.318-0.487-0.583-0.997-0.812-1.52l2.972 0.622c0.432 1.785 1.143 3.298 1.814 4.446C43.878 79.712 42.507 78.506 41.501 76.969zM55.765 79.952c-1.537 1.006-3.276 1.561-5.063 1.659 1.075-0.783 2.333-1.885 3.444-3.347l2.972 0.622C56.698 79.272 56.252 79.634 55.765 79.952z" fill="#ea9937" data-fill-palette-color="accent"></path></svg></g></svg></g><g id="text-0"><path d="M12.991 57.009l-1.997 10.11-1.843-0.507 1.829-9.087c-1.078-0.286-2.068-0.221-2.969 0.195-0.908 0.413-1.562 1.194-1.961 2.343v0c-0.412 1.188-0.326 2.318 0.258 3.389 0.578 1.069 1.662 1.879 3.251 2.43v0l0.63 0.218c1.584 0.395 2.924 0.297 4.019-0.293 1.097-0.598 1.908-1.651 2.433-3.162v0c0.278-0.801 0.395-1.573 0.351-2.316-0.041-0.75-0.15-1.369-0.327-1.857v0c0.211-0.162 0.426-0.275 0.647-0.338 0.227-0.061 0.456-0.052 0.686 0.028v0c0.361 0.125 0.631 0.451 0.809 0.976 0.172 0.523 0.235 1.156 0.191 1.898-0.044 0.742-0.213 1.537-0.507 2.384v0c-0.51 1.471-1.223 2.654-2.138 3.551-0.905 0.892-1.991 1.446-3.257 1.661-1.266 0.215-2.665 0.057-4.195-0.474v0c-1.09-0.378-2.007-0.873-2.751-1.484-0.738-0.609-1.307-1.3-1.709-2.072-0.395-0.77-0.614-1.6-0.658-2.49-0.042-0.897 0.097-1.805 0.416-2.725v0c0.406-1.169 1.008-2.111 1.808-2.826 0.809-0.72 1.747-1.178 2.816-1.373 1.062-0.198 2.167-0.098 3.316 0.301v0c0.42 0.146 0.689 0.346 0.807 0.6 0.118 0.254 0.133 0.561 0.045 0.92z" fill="#ea3c12" data-fill-palette-color="primary"></path><path d="M18.513 37.169v0c-0.791 1.126-1.068 2.329-0.829 3.609 0.238 1.28 1.071 2.422 2.498 3.425v0c1.404 0.987 2.741 1.387 4.011 1.201 1.271-0.177 2.32-0.854 3.147-2.031v0c0.492-0.699 0.803-1.347 0.933-1.943 0.14-0.598 0.213-1.167 0.219-1.707v0c0.225-0.114 0.454-0.174 0.687-0.18 0.232-0.015 0.456 0.053 0.671 0.205v0c0.461 0.324 0.611 0.943 0.452 1.859-0.159 0.916-0.601 1.888-1.324 2.917v0c-0.803 1.143-1.742 2.012-2.815 2.609-1.075 0.587-2.241 0.825-3.497 0.715-1.252-0.116-2.558-0.651-3.917-1.606v0c-1.342-0.943-2.279-1.997-2.811-3.161-0.532-1.164-0.708-2.358-0.528-3.582 0.181-1.224 0.648-2.373 1.404-3.448v0c0.723-1.029 1.494-1.757 2.312-2.184 0.818-0.427 1.452-0.483 1.902-0.167v0c0.199 0.14 0.332 0.319 0.4 0.536 0.064 0.223 0.075 0.456 0.032 0.698v0c-0.506 0.188-1.004 0.437-1.493 0.747-0.49 0.31-0.974 0.806-1.454 1.488z" fill="#ea3c12" data-fill-palette-color="primary"></path><path d="M44.17 20.139v0c0.932 1.168 1.524 2.367 1.776 3.597 0.253 1.22 0.164 2.39-0.269 3.508-0.428 1.124-1.188 2.121-2.28 2.993v0c-1.092 0.871-2.236 1.393-3.432 1.564-1.192 0.177-2.357 0.009-3.497-0.504-1.138-0.524-2.173-1.37-3.104-2.538v0c-0.949-1.19-1.543-2.397-1.781-3.62-0.234-1.218-0.134-2.391 0.299-3.52 0.438-1.123 1.195-2.113 2.271-2.971v0c1.076-0.858 2.207-1.374 3.393-1.547 1.191-0.168 2.354-0.002 3.49 0.497 1.14 0.504 2.185 1.351 3.134 2.541zM35.401 20.213v0c-1.059 0.845-1.603 1.892-1.629 3.14-0.022 1.254 0.491 2.538 1.54 3.852v0c1.062 1.331 2.194 2.126 3.396 2.385 1.202 0.259 2.349-0.047 3.441-0.918v0c1.076-0.858 1.619-1.91 1.631-3.155 0.01-1.235-0.509-2.51-1.558-3.824v0c-1.049-1.315-2.179-2.107-3.389-2.377-1.212-0.26-2.356 0.039-3.432 0.897z" fill="#ea3c12" data-fill-palette-color="primary"></path><path d="M64.753 8.357v0l1.157 3.306-2.293 0.802-1.095-3.129c-0.328-0.938-0.845-1.53-1.549-1.777-0.698-0.249-1.497-0.216-2.396 0.098v0c-0.59 0.207-1.128 0.501-1.612 0.884-0.491 0.385-0.883 0.769-1.176 1.152v0l1.717 4.91-2.292 0.802-1.677-4.792c-0.133-0.38-0.168-0.733-0.104-1.057 0.07-0.326 0.261-0.684 0.574-1.073v0c0.406-0.503 0.963-1.014 1.672-1.535 0.711-0.514 1.467-0.911 2.267-1.191v0c0.977-0.342 1.892-0.496 2.743-0.462 0.845 0.036 1.541 0.249 2.09 0.638v0c0.151 0.072 0.282 0.144 0.395 0.215 0.104 0.067 0.223 0.165 0.357 0.295v0c0.218 0.181 0.436 0.436 0.655 0.765 0.225 0.326 0.414 0.709 0.567 1.149zM73.177 5.476v0l1.136 3.248-2.303 0.805-1.094-3.129c-0.328-0.938-0.835-1.534-1.52-1.788-0.692-0.251-1.487-0.22-2.386 0.095v0c-0.669 0.234-1.264 0.597-1.784 1.088-0.525 0.5-0.947 1.093-1.266 1.779v0l-1.497-1.343c0.324-0.673 0.823-1.33 1.498-1.97 0.674-0.641 1.529-1.142 2.566-1.505v0c1.03-0.36 1.978-0.512 2.845-0.454 0.869 0.064 1.631 0.357 2.284 0.879 0.66 0.52 1.167 1.285 1.521 2.295zM56.959 20.394l-2.279-6.514 2.293-0.802 2.568 7.34c-0.085 0.074-0.214 0.167-0.389 0.28-0.172 0.119-0.373 0.219-0.602 0.299v0c-0.4 0.14-0.734 0.165-1.001 0.074-0.267-0.091-0.464-0.316-0.59-0.677zM65.362 17.454l-2.279-6.514 2.293-0.802 2.568 7.341c-0.085 0.074-0.221 0.169-0.408 0.286-0.178 0.121-0.373 0.219-0.582 0.292v0c-0.42 0.147-0.76 0.174-1.021 0.081-0.254-0.095-0.444-0.323-0.571-0.684zM73.756 14.518l-2.279-6.514 2.302-0.806 2.568 7.341c-0.085 0.074-0.221 0.169-0.407 0.286-0.178 0.121-0.373 0.219-0.583 0.292v0c-0.42 0.147-0.76 0.174-1.021 0.081-0.261-0.093-0.454-0.32-0.58-0.68z" fill="#ea3c12" data-fill-palette-color="primary"></path><path d="M98.361 5.026v0l-0.2 3.497-2.425-0.139 0.19-3.309c0.057-0.992-0.193-1.737-0.75-2.236-0.549-0.498-1.299-0.774-2.249-0.828v0c-0.624-0.036-1.234 0.03-1.829 0.198-0.601 0.167-1.111 0.371-1.528 0.612v0l-0.297 5.193-2.425-0.139 0.29-5.068c0.023-0.402 0.126-0.741 0.309-1.016 0.19-0.275 0.504-0.532 0.942-0.771v0c0.568-0.309 1.279-0.567 2.133-0.776 0.854-0.202 1.704-0.278 2.55-0.23v0c1.034 0.059 1.937 0.268 2.711 0.625 0.766 0.357 1.328 0.821 1.685 1.391v0c0.111 0.125 0.205 0.241 0.282 0.351 0.071 0.102 0.143 0.238 0.217 0.409v0c0.132 0.251 0.235 0.57 0.311 0.958 0.082 0.388 0.11 0.814 0.083 1.278zM107.246 5.598v0l-0.197 3.434-2.435-0.139 0.189-3.31c0.057-0.992-0.182-1.737-0.718-2.234-0.542-0.497-1.289-0.773-2.239-0.828v0c-0.708-0.041-1.396 0.066-2.065 0.321-0.676 0.261-1.294 0.646-1.852 1.157v0l-0.867-1.814c0.558-0.497 1.27-0.912 2.139-1.246 0.868-0.333 1.851-0.468 2.947-0.405v0c1.089 0.062 2.023 0.286 2.802 0.672 0.778 0.393 1.369 0.955 1.772 1.688 0.41 0.734 0.585 1.635 0.524 2.704zM86.546 13.152l0.394-6.89 2.425 0.139-0.444 7.764c-0.106 0.036-0.262 0.072-0.466 0.109-0.204 0.044-0.428 0.059-0.671 0.045v0c-0.423-0.024-0.741-0.129-0.953-0.315-0.212-0.186-0.307-0.47-0.285-0.852zM95.434 13.661l0.394-6.89 2.425 0.139-0.444 7.764c-0.106 0.036-0.269 0.072-0.487 0.108-0.211 0.044-0.428 0.059-0.65 0.046v0c-0.444-0.025-0.769-0.131-0.974-0.317-0.198-0.185-0.286-0.469-0.264-0.85zM104.312 14.169l0.394-6.89 2.436 0.14-0.445 7.764c-0.106 0.036-0.269 0.072-0.487 0.108-0.211 0.044-0.428 0.059-0.65 0.046v0c-0.444-0.025-0.769-0.131-0.973-0.317-0.205-0.186-0.297-0.469-0.275-0.851z" fill="#ea3c12" data-fill-palette-color="primary"></path><path d="M129.469 16.765l-9.934-2.743 0.643-1.801 8.926 2.5c0.365-1.054 0.374-2.046 0.027-2.976-0.344-0.937-1.075-1.646-2.191-2.129v0c-1.154-0.5-2.287-0.498-3.399 0.005-1.109 0.497-1.997 1.517-2.665 3.061v0l-0.265 0.612c-0.512 1.55-0.514 2.894-0.006 4.03 0.514 1.139 1.505 2.026 2.972 2.661v0c0.778 0.337 1.54 0.511 2.284 0.523 0.751 0.015 1.376-0.048 1.876-0.188v0c0.146 0.222 0.243 0.446 0.289 0.67 0.044 0.231 0.018 0.458-0.079 0.682v0c-0.152 0.351-0.496 0.596-1.033 0.734-0.534 0.132-1.17 0.149-1.907 0.049-0.737-0.099-1.517-0.327-2.34-0.683v0c-1.429-0.618-2.556-1.417-3.382-2.395-0.822-0.969-1.294-2.093-1.414-3.372-0.12-1.279 0.141-2.661 0.784-4.148v0c0.458-1.059 1.02-1.936 1.684-2.633 0.662-0.69 1.393-1.207 2.193-1.55 0.797-0.337 1.641-0.494 2.533-0.471 0.898 0.025 1.793 0.231 2.686 0.617v0c1.135 0.491 2.03 1.163 2.684 2.013 0.658 0.86 1.044 1.83 1.16 2.911 0.118 1.074-0.064 2.168-0.547 3.284v0c-0.177 0.408-0.396 0.662-0.658 0.76-0.262 0.099-0.569 0.091-0.921-0.024z" fill="#ea3c12" data-fill-palette-color="primary"></path><path d="M145.081 21.805v0l-2.983 3.769-1.904-1.508 2.866-3.621c0.289-0.365 0.585-0.605 0.888-0.719 0.304-0.105 0.697-0.136 1.177-0.093v0c0.625 0.061 1.375 0.273 2.248 0.636 0.869 0.369 1.742 0.9 2.62 1.595v0c1.27 1.005 1.654 1.824 1.154 2.456v0c-0.125 0.158-0.266 0.286-0.423 0.383-0.157 0.097-0.31 0.162-0.46 0.195v0c-0.136-0.152-0.32-0.346-0.55-0.582-0.23-0.235-0.471-0.452-0.721-0.651v0c-0.73-0.578-1.434-1.011-2.11-1.298-0.672-0.293-1.273-0.48-1.802-0.562zM136.668 28.521l4.392-5.55 1.679 1.793-4.71 5.951c-0.108-0.032-0.256-0.091-0.444-0.178-0.193-0.081-0.384-0.198-0.575-0.349v0c-0.332-0.263-0.532-0.532-0.598-0.806-0.067-0.274 0.019-0.561 0.256-0.861z" fill="#ea3c12" data-fill-palette-color="primary"></path><path d="M162.996 39.493v0c-0.829-1.099-1.889-1.731-3.18-1.897-1.292-0.166-2.634 0.276-4.027 1.326v0c-1.371 1.034-2.162 2.183-2.374 3.448-0.222 1.264 0.1 2.47 0.966 3.619v0c0.515 0.683 1.036 1.177 1.564 1.485 0.526 0.317 1.045 0.561 1.557 0.732v0c0.04 0.249 0.026 0.485-0.04 0.709-0.056 0.225-0.19 0.417-0.401 0.576v0c-0.449 0.339-1.085 0.292-1.908-0.141-0.823-0.433-1.613-1.152-2.37-2.156v0c-0.841-1.115-1.381-2.275-1.619-3.479-0.228-1.203-0.097-2.386 0.394-3.548 0.495-1.156 1.405-2.235 2.731-3.235v0c1.31-0.988 2.6-1.556 3.871-1.705 1.271-0.149 2.462 0.05 3.571 0.598 1.109 0.548 2.059 1.346 2.85 2.394v0c0.757 1.004 1.214 1.962 1.369 2.872 0.155 0.91 0.014 1.53-0.424 1.86v0c-0.194 0.146-0.405 0.219-0.634 0.217-0.232-0.008-0.457-0.069-0.674-0.184v0c-0.024-0.539-0.108-1.089-0.252-1.651-0.145-0.561-0.468-1.175-0.97-1.84z" fill="#ea3c12" data-fill-palette-color="primary"></path><path d="M170.597 67.332l-4.99-9.016 1.736-0.801 4.459 8.127c1.008-0.476 1.723-1.164 2.145-2.063 0.428-0.901 0.424-1.92-0.011-3.055v0c-0.451-1.174-1.245-1.983-2.383-2.425-1.131-0.444-2.481-0.365-4.051 0.238v0l-0.623 0.239c-1.466 0.719-2.427 1.657-2.883 2.815-0.454 1.164-0.394 2.493 0.178 3.985v0c0.304 0.792 0.712 1.457 1.224 1.997 0.515 0.547 0.997 0.95 1.447 1.209v0c-0.057 0.26-0.149 0.485-0.277 0.676-0.134 0.193-0.315 0.333-0.542 0.42v0c-0.357 0.137-0.773 0.062-1.247-0.224-0.468-0.289-0.925-0.732-1.37-1.328-0.445-0.596-0.828-1.313-1.149-2.15v0c-0.558-1.453-0.776-2.817-0.655-4.092 0.117-1.266 0.59-2.389 1.42-3.37 0.829-0.981 2-1.761 3.512-2.342v0c1.077-0.413 2.097-0.626 3.06-0.638 0.957-0.01 1.837 0.151 2.642 0.482 0.798 0.334 1.501 0.827 2.109 1.48 0.61 0.659 1.09 1.443 1.438 2.351v0c0.443 1.155 0.59 2.264 0.439 3.326-0.154 1.072-0.577 2.027-1.267 2.865-0.684 0.836-1.594 1.472-2.73 1.908v0c-0.415 0.159-0.75 0.18-1.003 0.061-0.254-0.118-0.463-0.343-0.628-0.675z" fill="#ea3c12" data-fill-palette-color="primary"></path><path d="M0.041 91.467c0-3.044 2.468-5.511 5.512-5.512 3.044 0 5.511 2.468 5.511 5.512 0 3.044-2.468 5.511-5.511 5.511-3.044 0-5.511-2.468-5.512-5.511z" fill="#ea3c12" data-fill-palette-color="primary"></path><path d="M168.756 91.467c0-3.044 2.468-5.511 5.511-5.512 3.044 0 5.511 2.468 5.512 5.512 0 3.044-2.468 5.511-5.512 5.511-3.044 0-5.511-2.468-5.511-5.511z" fill="#ea3c12" data-fill-palette-color="primary"></path></g><g id="text-1"><path d="M10.511 114.965l1.184 3.879-0.937 0.286-1.184-3.879zM10.262 117.505v0l0.848 0.242c0.195 0.638 0.251 1.202 0.167 1.693-0.085 0.484-0.268 0.885-0.548 1.203-0.281 0.318-0.637 0.543-1.069 0.675v0c-0.857 0.262-1.587 0.146-2.188-0.346-0.605-0.484-1.083-1.297-1.431-2.441v0c-0.077-0.253-0.144-0.508-0.201-0.767-0.064-0.257-0.117-0.513-0.159-0.769-0.035-0.258-0.061-0.508-0.076-0.751v0c-0.007-0.427 0.153-0.69 0.478-0.789v0l7.219-2.202c0.153-0.047 0.281-0.042 0.386 0.013 0.111 0.053 0.209 0.15 0.296 0.291v0c0.19 0.291 0.357 0.61 0.499 0.959 0.145 0.355 0.28 0.739 0.406 1.151v0c0.325 1.064 0.384 1.95 0.179 2.66-0.198 0.707-0.686 1.179-1.464 1.417v0c-0.399 0.122-0.794 0.137-1.185 0.045-0.391-0.091-0.755-0.318-1.09-0.681-0.331-0.371-0.605-0.912-0.823-1.623v0l0.669-0.346c0.189 0.618 0.461 1.047 0.818 1.287 0.359 0.247 0.767 0.3 1.225 0.16v0c0.472-0.144 0.764-0.437 0.877-0.878 0.119-0.443 0.068-1.027-0.153-1.751v0c-0.097-0.319-0.197-0.598-0.299-0.836-0.095-0.24-0.194-0.457-0.296-0.65v0l-6.711 2.047c0.022 0.24 0.063 0.515 0.121 0.824 0.063 0.301 0.14 0.6 0.231 0.9v0c0.239 0.784 0.554 1.339 0.944 1.663 0.383 0.326 0.85 0.405 1.402 0.237v0c0.485-0.148 0.815-0.449 0.989-0.901 0.176-0.446 0.156-1.025-0.061-1.736z" fill="#ea9937" data-fill-palette-color="secondary"></path><path d="M10.8 123.995v0l1.236-0.531 0.465 1.082-1.178 0.506c-0.581 0.25-0.93 0.582-1.047 0.995-0.124 0.416-0.069 0.896 0.165 1.439v0c0.157 0.364 0.328 0.657 0.514 0.879 0.184 0.216 0.349 0.38 0.495 0.491v0l2.452-1.054 0.465 1.082-2.413 1.038c-0.192 0.082-0.353 0.121-0.483 0.117-0.137-0.002-0.299-0.072-0.488-0.21v0c-0.2-0.148-0.434-0.385-0.701-0.708-0.268-0.324-0.513-0.744-0.736-1.262v0c-0.255-0.594-0.388-1.138-0.396-1.633-0.002-0.498 0.132-0.934 0.402-1.308 0.271-0.374 0.687-0.681 1.248-0.923zM16.666 127.895l-3.007 1.294-0.466-1.082 3.419-1.471c0.038 0.036 0.088 0.098 0.148 0.186 0.067 0.085 0.121 0.175 0.162 0.271v0c0.085 0.198 0.11 0.361 0.074 0.49-0.035 0.129-0.146 0.233-0.33 0.312zM14.8 123.557l-3.007 1.294-0.466-1.083 3.419-1.47c0.038 0.036 0.088 0.098 0.148 0.186 0.067 0.085 0.123 0.181 0.17 0.29v0c0.082 0.192 0.104 0.348 0.066 0.471-0.035 0.129-0.146 0.233-0.33 0.312z" fill="#ea9937" data-fill-palette-color="secondary"></path><path d="M14.468 133.861v0c0.19-0.299 0.46-0.683 0.81-1.152 0.35-0.469 0.753-0.976 1.212-1.522 0.452-0.543 0.921-1.083 1.407-1.621v0c0.119 0.013 0.235 0.055 0.347 0.127 0.103 0.069 0.185 0.159 0.247 0.268v0c0.082 0.145 0.114 0.287 0.096 0.424-0.027 0.135-0.115 0.284-0.262 0.448v0c-0.573 0.667-1.135 1.34-1.686 2.017-0.553 0.688-1.111 1.418-1.672 2.19v0l0.025 0.046c0.46-0.02 1.015-0.082 1.667-0.187 0.648-0.111 1.323-0.244 2.024-0.401 0.702-0.157 1.351-0.328 1.949-0.515v0c0.058 0.047 0.12 0.1 0.185 0.159 0.059 0.062 0.114 0.139 0.166 0.23v0c0.082 0.145 0.112 0.284 0.091 0.415-0.018 0.138-0.099 0.248-0.245 0.33v0c-0.133 0.075-0.382 0.164-0.747 0.267-0.365 0.103-0.8 0.209-1.305 0.318-0.499 0.106-1.034 0.205-1.605 0.296-0.577 0.095-1.149 0.17-1.716 0.227-0.573 0.06-1.102 0.092-1.587 0.094v0c-0.948 0.017-1.708-0.029-2.28-0.137-0.578-0.105-0.944-0.293-1.098-0.565v0c-0.109-0.194-0.143-0.374-0.102-0.541 0.041-0.167 0.125-0.302 0.25-0.405v0c0.269 0.095 0.604 0.186 1.004 0.271 0.406 0.082 0.824 0.145 1.256 0.189 0.438 0.04 0.838 0.049 1.201 0.028v0c-0.04-0.169-0.041-0.348-0.004-0.537 0.047-0.186 0.171-0.44 0.372-0.761z" fill="#ea9937" data-fill-palette-color="secondary"></path><path d="M20.294 145.86v0c-0.56-0.736-0.847-1.417-0.86-2.044-0.02-0.623 0.244-1.142 0.791-1.559v0c0.509-0.387 1.027-0.515 1.555-0.384 0.526 0.141 1.047 0.492 1.561 1.053v0l1.435 1.541 0.332-0.253c0.393-0.299 0.587-0.634 0.583-1.007 0.006-0.371-0.143-0.756-0.446-1.154v0c-0.244-0.321-0.525-0.592-0.842-0.813-0.317-0.222-0.623-0.399-0.917-0.534v0c0.005-0.108 0.027-0.217 0.066-0.326 0.034-0.104 0.09-0.186 0.168-0.245v0c0.205-0.156 0.449-0.162 0.731-0.019v0c0.271 0.126 0.539 0.306 0.805 0.54 0.275 0.236 0.531 0.509 0.767 0.818v0c0.518 0.68 0.776 1.335 0.774 1.965 0.003 0.635-0.325 1.203-0.982 1.704v0l-2.78 2.115c-0.177 0.135-0.337 0.2-0.48 0.195-0.139 0.001-0.298-0.035-0.476-0.109v0c-0.248-0.108-0.532-0.285-0.85-0.532-0.328-0.248-0.64-0.565-0.935-0.952zM21.074 145.266v0c0.248 0.326 0.488 0.572 0.718 0.737 0.231 0.165 0.412 0.272 0.545 0.32v0l1.7-1.294-1.26-1.347c-0.34-0.378-0.661-0.61-0.962-0.696-0.297-0.08-0.586-0.013-0.868 0.202v0c-0.288 0.219-0.426 0.508-0.415 0.866 0.012 0.349 0.193 0.753 0.542 1.212z" fill="#ea9937" data-fill-palette-color="secondary"></path><path d="M31.644 151.682v0l-1.1 1.022-0.802-0.863 1.061-0.986c0.402-0.374 0.591-0.763 0.567-1.167-0.02-0.399-0.207-0.789-0.562-1.171v0c-0.27-0.29-0.547-0.512-0.831-0.665-0.279-0.158-0.538-0.273-0.777-0.346v0l-1.871 1.739-0.802-0.863 1.825-1.696c0.153-0.142 0.306-0.227 0.46-0.256 0.153-0.029 0.35-0.012 0.588 0.051v0c0.282 0.089 0.613 0.241 0.994 0.457 0.385 0.221 0.76 0.527 1.124 0.919v0c0.606 0.652 0.936 1.308 0.99 1.969 0.055 0.651-0.233 1.27-0.864 1.856zM24.672 150.107l2.451-2.278 0.802 0.862-2.765 2.569c-0.048-0.021-0.116-0.058-0.202-0.11-0.082-0.057-0.162-0.129-0.243-0.216v0c-0.142-0.153-0.218-0.296-0.228-0.428-0.015-0.138 0.047-0.271 0.185-0.399zM27.886 153.566l2.452-2.278 0.802 0.863-2.765 2.569c-0.048-0.021-0.118-0.061-0.209-0.119-0.086-0.062-0.165-0.131-0.236-0.207v0c-0.147-0.158-0.225-0.303-0.235-0.437-0.01-0.133 0.054-0.264 0.191-0.391z" fill="#ea9937" data-fill-palette-color="secondary"></path><path d="M32.931 156.783v0c0.079-0.346 0.204-0.798 0.375-1.357 0.172-0.559 0.381-1.173 0.629-1.841 0.243-0.663 0.503-1.329 0.781-2v0c0.116-0.028 0.239-0.027 0.369 0.003 0.12 0.031 0.228 0.087 0.323 0.169v0c0.126 0.109 0.204 0.232 0.233 0.368 0.02 0.137-0.013 0.306-0.096 0.509v0c-0.316 0.821-0.619 1.643-0.91 2.467-0.29 0.834-0.57 1.709-0.838 2.625v0l0.039 0.034c0.426-0.173 0.928-0.419 1.506-0.736 0.573-0.322 1.164-0.675 1.772-1.058 0.608-0.384 1.162-0.763 1.662-1.14v0c0.071 0.024 0.147 0.054 0.228 0.088 0.077 0.039 0.154 0.092 0.234 0.16v0c0.126 0.109 0.201 0.229 0.225 0.361 0.029 0.136-0.01 0.267-0.12 0.393v0c-0.1 0.116-0.305 0.283-0.614 0.502-0.309 0.219-0.683 0.465-1.122 0.738-0.434 0.268-0.905 0.54-1.412 0.819-0.512 0.283-1.025 0.547-1.539 0.79-0.519 0.249-1.007 0.457-1.463 0.622v0c-0.887 0.335-1.619 0.547-2.194 0.638-0.579 0.096-0.987 0.041-1.224-0.163v0c-0.168-0.146-0.261-0.304-0.278-0.476-0.017-0.171 0.016-0.326 0.1-0.465v0c0.286-0.001 0.631-0.028 1.036-0.082 0.41-0.059 0.825-0.141 1.246-0.244 0.426-0.109 0.806-0.235 1.141-0.378v0c-0.094-0.146-0.156-0.314-0.184-0.504-0.019-0.191 0.013-0.471 0.095-0.842z" fill="#ea9937" data-fill-palette-color="secondary"></path><path d="M38.358 160.901l1.246-1.697 0.95 0.697-1.203 1.638c-0.23 0.314-0.305 0.604-0.225 0.87 0.09 0.265 0.292 0.512 0.606 0.743v0c0.134 0.099 0.302 0.187 0.503 0.266 0.205 0.073 0.386 0.12 0.544 0.14v0c0.012 0.078 0.011 0.167-0.004 0.269-0.014 0.102-0.056 0.2-0.126 0.295v0c-0.128 0.174-0.336 0.24-0.626 0.2-0.28-0.042-0.602-0.196-0.966-0.463v0c-0.555-0.407-0.917-0.859-1.087-1.355-0.161-0.497-0.031-1.032 0.388-1.603zM43.319 159.694l-2.16-1.586 0.574-0.782 2.412 1.771c0.002 0.044-0.013 0.111-0.044 0.201-0.031 0.089-0.075 0.173-0.133 0.251v0c-0.09 0.123-0.193 0.199-0.309 0.227-0.115 0.028-0.229 0-0.34-0.082zM43.201 156.296l-2.906 3.958-0.95-0.697 3.159-4.302c0.052 0.012 0.125 0.036 0.22 0.07 0.096 0.045 0.192 0.102 0.287 0.172v0c0.168 0.123 0.269 0.25 0.304 0.379 0.035 0.129-0.004 0.269-0.114 0.42z" fill="#ea9937" data-fill-palette-color="secondary"></path><path d="M50.031 165.443l-0.72 1.185-1.007-0.612 0.704-1.158c0.307-0.505 0.395-0.964 0.263-1.377-0.137-0.417-0.428-0.76-0.874-1.031v0c-0.327-0.199-0.669-0.317-1.027-0.356-0.355-0.045-0.685-0.038-0.989 0.021v0l0.311-0.933c0.289-0.02 0.644-0.003 1.067 0.05 0.417 0.05 0.845 0.209 1.284 0.476v0c0.695 0.422 1.15 0.959 1.364 1.61 0.218 0.645 0.092 1.353-0.376 2.125zM42.998 165.695l1.781-2.931 1.006 0.612-2.003 3.296c-0.052-0.007-0.127-0.025-0.225-0.052-0.094-0.033-0.191-0.08-0.292-0.141v0c-0.178-0.108-0.293-0.227-0.345-0.356-0.046-0.125-0.02-0.268 0.078-0.428zM47.015 168.136l1.776-2.922 1.001 0.621-1.992 3.278c-0.052-0.007-0.13-0.026-0.234-0.056-0.094-0.033-0.188-0.078-0.283-0.136v0c-0.184-0.112-0.299-0.231-0.345-0.356-0.046-0.125-0.02-0.268 0.077-0.429zM48.509 158.895l-3.021 4.971-1.007-0.612 3.243-5.337c0.052 0.007 0.129 0.029 0.228 0.066 0.104 0.03 0.206 0.076 0.307 0.138v0c0.172 0.105 0.281 0.22 0.327 0.345 0.046 0.125 0.02 0.268-0.077 0.429z" fill="#ea9937" data-fill-palette-color="secondary"></path><path d="M54.682 162.579v0c0.094-0.186 0.237-0.309 0.43-0.368 0.202-0.062 0.4-0.044 0.592 0.053v0c0.199 0.1 0.327 0.246 0.385 0.439 0.062 0.187 0.046 0.373-0.047 0.56v0c-0.094 0.186-0.234 0.31-0.421 0.371-0.19 0.068-0.384 0.052-0.583-0.048v0c-0.192-0.097-0.324-0.245-0.395-0.443-0.068-0.19-0.055-0.378 0.039-0.564zM51.017 170.257l1.542-3.064 1.052 0.53-1.733 3.446c-0.053-0.003-0.129-0.014-0.229-0.034-0.096-0.025-0.197-0.064-0.302-0.117v0c-0.186-0.094-0.307-0.201-0.363-0.322-0.062-0.124-0.051-0.271 0.033-0.439zM54.712 165.534l-1.359 2.701-1.052-0.529 1.56-3.101c0.053 0.003 0.131 0.019 0.233 0.047 0.106 0.022 0.211 0.06 0.317 0.112v0c0.186 0.094 0.307 0.201 0.363 0.323 0.049 0.118 0.029 0.267-0.062 0.447z" fill="#ea9937" data-fill-palette-color="secondary"></path><path d="M62.133 170.644v0l-0.568 1.389-1.091-0.446 0.549-1.341c0.208-0.508 0.216-0.94 0.024-1.297-0.186-0.354-0.52-0.629-1.003-0.826v0c-0.367-0.15-0.711-0.235-1.033-0.254-0.32-0.026-0.603-0.021-0.85 0.012v0l-0.967 2.364-1.09-0.445 0.943-2.307c0.079-0.193 0.182-0.335 0.309-0.425 0.127-0.091 0.312-0.158 0.555-0.201v0c0.293-0.038 0.658-0.039 1.094-0.003 0.442 0.038 0.911 0.159 1.406 0.361v0c0.823 0.337 1.399 0.794 1.726 1.371 0.323 0.568 0.322 1.25-0.004 2.048zM55.145 172.144l1.266-3.097 1.091 0.446-1.429 3.493c-0.053 0.001-0.13-0.004-0.23-0.016-0.098-0.018-0.202-0.049-0.311-0.093v0c-0.193-0.079-0.322-0.177-0.387-0.293-0.071-0.119-0.072-0.266 0-0.44zM59.516 173.932l1.266-3.097 1.091 0.446-1.429 3.492c-0.053 0.001-0.133-0.006-0.24-0.019-0.104-0.02-0.205-0.05-0.301-0.089v0c-0.199-0.082-0.332-0.181-0.397-0.298-0.065-0.117-0.062-0.262 0.01-0.435z" fill="#ea9937" data-fill-palette-color="secondary"></path><path d="M66.47 176.397v0c-0.548-0.158-1.024-0.411-1.43-0.76-0.401-0.34-0.671-0.794-0.811-1.363-0.148-0.564-0.108-1.243 0.122-2.037v0c0.206-0.714 0.519-1.272 0.938-1.671 0.419-0.4 0.908-0.653 1.467-0.759 0.565-0.104 1.165-0.065 1.8 0.118v0c0.434 0.125 0.816 0.293 1.145 0.504 0.334 0.22 0.599 0.444 0.793 0.674v0c0.12 0.136 0.207 0.273 0.261 0.411 0.052 0.145 0.053 0.305 0.003 0.479v0l-1.264 4.377-1.131-0.327 1.26-4.367c-0.129-0.153-0.303-0.304-0.52-0.454-0.217-0.15-0.489-0.272-0.816-0.366v0c-0.634-0.183-1.201-0.137-1.7 0.139-0.499 0.275-0.859 0.797-1.082 1.565v0c-0.245 0.848-0.226 1.508 0.058 1.98 0.29 0.474 0.722 0.794 1.296 0.96v0c0.421 0.121 0.778 0.149 1.072 0.082 0.296-0.074 0.545-0.172 0.747-0.294v0l-0.239 1.016c-0.185 0.113-0.449 0.189-0.792 0.227-0.344 0.038-0.736-0.006-1.177-0.134zM68.004 177.285v0l0.428-1.483 1.132 0.327-0.449 1.553c-0.181 0.628-0.459 1.09-0.834 1.386-0.377 0.303-0.823 0.471-1.339 0.504-0.518 0.039-1.07-0.027-1.657-0.197v0c-0.474-0.137-0.866-0.308-1.176-0.513-0.312-0.198-0.518-0.348-0.619-0.45v0c-0.234-0.241-0.316-0.485-0.244-0.732v0c0.039-0.134 0.1-0.235 0.185-0.305 0.087-0.076 0.184-0.124 0.292-0.144v0c0.156 0.211 0.396 0.433 0.719 0.664 0.331 0.233 0.703 0.409 1.117 0.529v0c0.634 0.183 1.158 0.186 1.571 0.008 0.413-0.177 0.704-0.56 0.874-1.147z" fill="#ea9937" data-fill-palette-color="secondary"></path><path d="M83.09 176.195v0c-0.094 0.724-0.313 1.336-0.659 1.838-0.339 0.503-0.775 0.867-1.308 1.092-0.534 0.225-1.138 0.294-1.814 0.206v0c-0.675-0.088-1.246-0.309-1.711-0.663-0.459-0.354-0.791-0.817-0.997-1.391-0.206-0.573-0.262-1.222-0.169-1.945v0c0.095-0.731 0.318-1.343 0.669-1.837 0.344-0.495 0.788-0.858 1.33-1.089 0.541-0.224 1.142-0.293 1.803-0.208v0c0.662 0.086 1.222 0.306 1.681 0.66 0.458 0.361 0.794 0.825 1.007 1.392 0.207 0.566 0.263 1.215 0.168 1.945zM80.109 173.16v0c-0.655-0.085-1.205 0.082-1.652 0.5-0.446 0.412-0.721 1.021-0.825 1.827v0c-0.106 0.82 0 1.486 0.319 1.997 0.313 0.503 0.807 0.798 1.483 0.886v0c0.662 0.086 1.212-0.078 1.651-0.49 0.432-0.414 0.701-1.027 0.806-1.84v0c0.105-0.806 0.001-1.465-0.312-1.975-0.318-0.518-0.808-0.82-1.47-0.905z" fill="#ea9937" data-fill-palette-color="secondary"></path><path d="M87.001 174.224v0l-0.086 2.333-1.178-0.043 0.084-2.24c0.009-0.229 0.057-0.408 0.145-0.537 0.088-0.129 0.232-0.256 0.431-0.381v0c0.263-0.157 0.619-0.286 1.068-0.388 0.449-0.108 0.941-0.153 1.476-0.133v0c0.792 0.029 1.18 0.242 1.166 0.638v0c-0.004 0.097-0.024 0.187-0.062 0.269-0.031 0.082-0.072 0.15-0.123 0.204v0c-0.096-0.024-0.224-0.047-0.383-0.066-0.152-0.027-0.308-0.043-0.468-0.049v0c-0.451-0.017-0.852 0.013-1.203 0.091-0.344 0.085-0.633 0.185-0.867 0.302zM85.635 179.264l0.128-3.428 1.171 0.211-0.138 3.688c-0.049 0.019-0.123 0.041-0.221 0.064-0.098 0.017-0.206 0.024-0.324 0.02v0c-0.208-0.008-0.363-0.055-0.464-0.143-0.108-0.087-0.159-0.225-0.152-0.412z" fill="#ea9937" data-fill-palette-color="secondary"></path><path d="M98.898 178.515v0c0.65-0.062 1.131-0.258 1.441-0.589 0.31-0.33 0.443-0.73 0.398-1.2v0c-0.038-0.401-0.198-0.721-0.48-0.96-0.288-0.238-0.72-0.409-1.295-0.514v0l-1.313-0.262c-0.42-0.085-0.792-0.214-1.116-0.385-0.324-0.171-0.579-0.398-0.767-0.681-0.195-0.288-0.312-0.633-0.35-1.034v0c-0.072-0.747 0.149-1.362 0.661-1.844 0.505-0.481 1.211-0.765 2.117-0.852v0c0.533-0.051 1.012-0.038 1.439 0.04 0.426 0.071 0.768 0.181 1.026 0.331 0.252 0.157 0.388 0.333 0.407 0.526v0c0.013 0.131-0.008 0.249-0.061 0.352-0.059 0.11-0.141 0.202-0.246 0.275v0c-0.261-0.171-0.606-0.312-1.035-0.425-0.436-0.105-0.896-0.134-1.38-0.087v0c-0.567 0.054-1.005 0.222-1.314 0.502-0.315 0.282-0.452 0.637-0.411 1.066v0c0.033 0.346 0.181 0.614 0.444 0.806 0.263 0.191 0.671 0.341 1.226 0.448v0l0.918 0.174c0.795 0.14 1.434 0.397 1.917 0.769 0.482 0.366 0.758 0.912 0.827 1.638v0c0.074 0.775-0.146 1.428-0.661 1.959-0.515 0.531-1.28 0.845-2.297 0.943v0c-0.602 0.058-1.13 0.042-1.586-0.047-0.455-0.089-0.821-0.222-1.096-0.398-0.268-0.177-0.412-0.362-0.43-0.555v0c-0.016-0.166 0.023-0.309 0.116-0.43 0.092-0.128 0.206-0.222 0.339-0.284v0c0.242 0.193 0.581 0.377 1.017 0.552 0.428 0.168 0.943 0.224 1.545 0.166z" fill="#ea9937" data-fill-palette-color="secondary"></path><path d="M109.733 174.151l-4.721 1.646-0.243-0.898 4.256-1.467c-0.147-0.523-0.418-0.923-0.813-1.198-0.395-0.275-0.882-0.355-1.462-0.24v0c-0.6 0.12-1.051 0.433-1.354 0.941-0.303 0.507-0.374 1.159-0.214 1.956v0l0.063 0.317c0.223 0.763 0.593 1.299 1.108 1.607 0.517 0.315 1.156 0.396 1.92 0.243v0c0.409-0.082 0.763-0.223 1.063-0.425 0.3-0.202 0.53-0.397 0.691-0.584v0c0.123 0.046 0.224 0.108 0.303 0.184 0.08 0.083 0.132 0.183 0.155 0.298v0c0.035 0.177-0.033 0.368-0.205 0.573-0.18 0.199-0.431 0.38-0.752 0.543-0.322 0.164-0.697 0.288-1.126 0.374v0c-0.743 0.149-1.41 0.144-2.002-0.014-0.6-0.164-1.103-0.481-1.509-0.953-0.401-0.48-0.678-1.105-0.832-1.875v0c-0.11-0.552-0.127-1.059-0.049-1.521 0.071-0.461 0.22-0.866 0.448-1.216 0.219-0.356 0.51-0.655 0.873-0.898 0.364-0.236 0.778-0.4 1.241-0.492v0c0.593-0.119 1.136-0.096 1.63 0.067 0.5 0.162 0.924 0.439 1.271 0.83 0.342 0.399 0.571 0.889 0.687 1.468v0c0.042 0.211 0.025 0.374-0.051 0.489-0.078 0.108-0.203 0.189-0.376 0.245z" fill="#ea9937" data-fill-palette-color="secondary"></path><path d="M113.61 176.116l-0.906-3.308 1.19-0.153 0.975 3.559c-0.041 0.033-0.109 0.077-0.202 0.131-0.088 0.046-0.189 0.084-0.303 0.116v0c-0.194 0.053-0.356 0.054-0.486 0.003-0.129-0.051-0.219-0.167-0.268-0.348zM112.465 167.437l1.578 5.761-1.188 0.163-1.65-6.022c0.041-0.033 0.11-0.073 0.205-0.121 0.093-0.054 0.193-0.096 0.301-0.126v0c0.208-0.057 0.373-0.059 0.495-0.006 0.123 0.053 0.209 0.17 0.258 0.351z" fill="#ea9937" data-fill-palette-color="secondary"></path><path d="M118.012 174.75l-1.079-3.256 1.18-0.216 1.162 3.503c-0.04 0.035-0.105 0.082-0.195 0.142-0.086 0.05-0.185 0.094-0.297 0.131v0c-0.191 0.063-0.353 0.073-0.484 0.029-0.132-0.044-0.227-0.155-0.287-0.333zM116.41 166.143l1.881 5.67-1.178 0.225-1.965-5.927c0.04-0.035 0.106-0.079 0.198-0.131 0.09-0.059 0.188-0.106 0.293-0.141v0c0.204-0.068 0.369-0.079 0.495-0.033 0.125 0.046 0.217 0.159 0.276 0.337z" fill="#ea9937" data-fill-palette-color="secondary"></path><path d="M125.996 171.348l-2.046-4.291 1.082-0.516 2.275 4.771c-0.035 0.024-0.095 0.076-0.18 0.155-0.079 0.076-0.169 0.138-0.27 0.186v0c-0.176 0.084-0.344 0.095-0.504 0.032-0.157-0.056-0.277-0.168-0.357-0.337zM123.547 163.426l2.234 4.686-1.086 0.507-2.001-4.197c-0.084-0.176-0.098-0.342-0.042-0.5 0.056-0.157 0.172-0.278 0.347-0.362v0c0.1-0.048 0.204-0.082 0.31-0.101 0.112-0.023 0.192-0.034 0.238-0.033zM128.811 166.183l-3.717 1.772-0.435-0.913 4.009-1.911c0.043 0.026 0.097 0.073 0.16 0.143 0.07 0.067 0.126 0.144 0.168 0.231v0c0.066 0.138 0.083 0.272 0.054 0.402-0.027 0.121-0.107 0.212-0.239 0.276zM131.054 169.652l-4.197 2.001-0.43-0.904 4.488-2.139c0.04 0.019 0.091 0.061 0.152 0.124 0.07 0.067 0.128 0.147 0.172 0.241v0c0.069 0.144 0.086 0.278 0.054 0.402-0.027 0.121-0.107 0.212-0.239 0.275zM127.565 162.504l-4.131 1.969-0.435-0.913 4.423-2.108c0.04 0.019 0.092 0.064 0.156 0.133 0.07 0.067 0.126 0.144 0.168 0.232v0c0.069 0.144 0.088 0.281 0.058 0.411-0.027 0.121-0.107 0.212-0.239 0.276z" fill="#ea9937" data-fill-palette-color="secondary"></path><path d="M134.818 159.297v0c0.142-0.087 0.279-0.123 0.412-0.106 0.13 0.026 0.239 0.11 0.326 0.252v0c0.069 0.113 0.15 0.344 0.243 0.695 0.091 0.36 0.191 0.796 0.301 1.307 0.104 0.515 0.207 1.055 0.31 1.621 0.096 0.569 0.184 1.123 0.262 1.661 0.069 0.537 0.118 1.008 0.147 1.415v0c-0.02 0.061-0.075 0.136-0.168 0.225-0.092 0.089-0.194 0.168-0.307 0.238v0c-0.142 0.087-0.282 0.145-0.42 0.172-0.136 0.018-0.25-0.002-0.342-0.059v0c-0.2-0.114-0.473-0.285-0.817-0.514-0.338-0.233-0.721-0.503-1.147-0.813-0.417-0.307-0.846-0.627-1.287-0.959-0.444-0.339-0.861-0.666-1.25-0.981-0.393-0.321-0.731-0.607-1.016-0.857v0c0.008-0.119 0.046-0.236 0.115-0.352 0.072-0.109 0.158-0.195 0.258-0.256v0c0.154-0.095 0.294-0.132 0.421-0.112 0.13 0.026 0.279 0.11 0.448 0.251v0l2.161 1.768c0.185 0.155 0.418 0.343 0.7 0.561 0.287 0.215 0.571 0.432 0.852 0.651 0.287 0.215 0.523 0.401 0.708 0.556v0l0.054-0.032c-0.188-1.051-0.389-2.081-0.602-3.093-0.215-1.001-0.458-1.961-0.728-2.88v0c0.067-0.131 0.189-0.25 0.366-0.359z" fill="#ea9937" data-fill-palette-color="secondary"></path><path d="M143.465 157.376l-3.537 3.533-0.609-0.703 3.196-3.171c-0.36-0.407-0.778-0.649-1.253-0.726-0.476-0.076-0.949 0.064-1.421 0.42v0c-0.488 0.369-0.758 0.847-0.81 1.435-0.052 0.588 0.167 1.207 0.656 1.855v0l0.195 0.258c0.533 0.59 1.098 0.912 1.696 0.966 0.602 0.059 1.214-0.146 1.835-0.615v0c0.333-0.251 0.59-0.533 0.773-0.845 0.182-0.312 0.305-0.588 0.368-0.826v0c0.131-0.012 0.248 0 0.353 0.034 0.109 0.04 0.198 0.107 0.269 0.201v0c0.109 0.144 0.13 0.346 0.065 0.605-0.076 0.257-0.223 0.53-0.442 0.816-0.219 0.287-0.503 0.563-0.852 0.827v0c-0.605 0.457-1.208 0.742-1.809 0.856-0.611 0.113-1.202 0.046-1.773-0.202-0.569-0.258-1.091-0.7-1.564-1.328v0c-0.339-0.449-0.574-0.899-0.705-1.348-0.136-0.446-0.178-0.876-0.125-1.29 0.043-0.416 0.175-0.812 0.397-1.188 0.225-0.37 0.527-0.698 0.903-0.983v0c0.483-0.364 0.981-0.58 1.497-0.647 0.521-0.071 1.023-0.006 1.506 0.195 0.482 0.211 0.9 0.552 1.257 1.024v0c0.13 0.172 0.185 0.326 0.166 0.462-0.023 0.131-0.101 0.259-0.232 0.385z" fill="#ea9937" data-fill-palette-color="secondary"></path><path d="M145.214 152.92v0l1.566 1.732-0.873 0.791-1.503-1.663c-0.154-0.17-0.244-0.332-0.271-0.486-0.027-0.154-0.012-0.345 0.043-0.573v0c0.079-0.296 0.244-0.637 0.495-1.024 0.246-0.391 0.568-0.766 0.964-1.125v0c0.588-0.531 1.014-0.65 1.28-0.356v0c0.065 0.072 0.113 0.151 0.143 0.236 0.035 0.081 0.054 0.158 0.055 0.232v0c-0.086 0.05-0.193 0.123-0.321 0.22-0.127 0.087-0.25 0.184-0.369 0.291v0c-0.335 0.303-0.601 0.604-0.798 0.905-0.187 0.301-0.324 0.574-0.411 0.82zM147.752 157.484l-2.3-2.544 0.986-0.666 2.475 2.737c-0.022 0.048-0.06 0.115-0.114 0.201-0.058 0.081-0.131 0.161-0.218 0.24v0c-0.155 0.14-0.299 0.214-0.432 0.222-0.138 0.013-0.271-0.051-0.397-0.19z" fill="#ea9937" data-fill-palette-color="secondary"></path><path d="M152.767 151.095v0c-0.343-0.09-0.791-0.23-1.344-0.421-0.553-0.19-1.16-0.42-1.819-0.69-0.654-0.265-1.312-0.547-1.972-0.846v0c-0.024-0.117-0.019-0.24 0.015-0.37 0.035-0.119 0.095-0.225 0.18-0.317v0c0.113-0.122 0.238-0.196 0.375-0.22 0.137-0.015 0.306 0.023 0.506 0.113v0c0.81 0.343 1.622 0.673 2.435 0.991 0.824 0.318 1.689 0.626 2.596 0.926v0l0.035-0.038c-0.159-0.432-0.388-0.942-0.686-1.531-0.303-0.583-0.636-1.185-0.998-1.806-0.363-0.62-0.724-1.187-1.084-1.699v0c0.027-0.07 0.058-0.145 0.095-0.225 0.041-0.075 0.097-0.151 0.168-0.228v0c0.113-0.122 0.236-0.193 0.368-0.213 0.137-0.025 0.266 0.019 0.389 0.133v0c0.112 0.104 0.273 0.314 0.482 0.63 0.209 0.317 0.442 0.699 0.7 1.146 0.253 0.443 0.51 0.922 0.771 1.439 0.266 0.521 0.512 1.043 0.739 1.565 0.232 0.527 0.423 1.021 0.573 1.483v0c0.305 0.898 0.493 1.636 0.564 2.213 0.076 0.582 0.008 0.988-0.204 1.218v0c-0.151 0.163-0.313 0.251-0.484 0.262-0.172 0.011-0.326-0.027-0.462-0.115v0c0.009-0.286-0.007-0.632-0.047-1.038-0.045-0.411-0.113-0.829-0.203-1.254-0.095-0.429-0.208-0.813-0.339-1.153v0c-0.149 0.089-0.319 0.145-0.51 0.167-0.191 0.012-0.471-0.029-0.839-0.122z" fill="#ea9937" data-fill-palette-color="secondary"></path><path d="M157.064 145.808l-1.655-1.303 0.729-0.925 1.597 1.257c0.306 0.241 0.593 0.325 0.862 0.254 0.267-0.081 0.522-0.275 0.762-0.581v0c0.103-0.131 0.197-0.296 0.283-0.494 0.08-0.203 0.133-0.382 0.158-0.539v0c0.078-0.009 0.168-0.005 0.269 0.013 0.101 0.018 0.198 0.063 0.291 0.136v0c0.169 0.133 0.229 0.344 0.179 0.632-0.051 0.278-0.216 0.595-0.496 0.95v0c-0.426 0.541-0.889 0.888-1.39 1.041-0.502 0.144-1.032-0.003-1.589-0.441zM156.023 140.81l-1.657 2.105-0.762-0.6 1.85-2.351c0.044 0 0.111 0.016 0.199 0.051 0.088 0.034 0.171 0.081 0.247 0.141v0c0.12 0.095 0.192 0.2 0.216 0.316 0.024 0.116-0.007 0.229-0.093 0.338zM152.623 140.814l3.859 3.037-0.729 0.925-4.194-3.301c0.014-0.051 0.04-0.124 0.078-0.217 0.048-0.095 0.109-0.189 0.182-0.281v0c0.129-0.164 0.258-0.261 0.388-0.292 0.13-0.03 0.269 0.013 0.416 0.129z" fill="#ea9937" data-fill-palette-color="secondary"></path><path d="M161.993 134.293l1.16 0.759-0.645 0.986-1.134-0.742c-0.494-0.323-0.95-0.427-1.367-0.309-0.421 0.123-0.774 0.403-1.06 0.839v0c-0.209 0.32-0.339 0.658-0.39 1.015-0.057 0.353-0.061 0.683-0.012 0.989v0l-0.923-0.342c-0.01-0.289 0.019-0.644 0.087-1.065 0.064-0.415 0.237-0.838 0.518-1.268v0c0.445-0.68 0.997-1.117 1.654-1.309 0.652-0.196 1.356-0.047 2.112 0.447zM162.01 141.331l-2.87-1.878 0.645-0.986 3.227 2.112c-0.009 0.052-0.029 0.127-0.058 0.223-0.036 0.093-0.086 0.189-0.151 0.288v0c-0.114 0.174-0.237 0.285-0.367 0.332-0.127 0.042-0.269 0.011-0.426-0.091zM164.584 137.397l-2.861-1.873 0.654-0.98 3.21 2.101c-0.009 0.052-0.031 0.129-0.065 0.232-0.036 0.093-0.084 0.186-0.145 0.279v0c-0.118 0.18-0.24 0.291-0.367 0.332-0.127 0.042-0.269 0.011-0.426-0.091zM155.397 135.596l4.868 3.185-0.645 0.986-5.225-3.419c0.009-0.052 0.034-0.128 0.073-0.227 0.034-0.102 0.083-0.203 0.148-0.302v0c0.11-0.169 0.229-0.274 0.355-0.315 0.127-0.042 0.269-0.011 0.426 0.092z" fill="#ea9937" data-fill-palette-color="secondary"></path><path d="M159.284 129.549v0c-0.183-0.1-0.301-0.247-0.352-0.441-0.055-0.204-0.031-0.401 0.072-0.59v0c0.106-0.195 0.257-0.319 0.452-0.371 0.189-0.055 0.374-0.033 0.557 0.066v0c0.183 0.1 0.302 0.244 0.358 0.433 0.062 0.192 0.039 0.385-0.068 0.581v0c-0.103 0.189-0.255 0.316-0.456 0.38-0.192 0.062-0.379 0.042-0.563-0.058zM166.837 133.467l-3.011-1.642 0.564-1.034 3.386 1.846c-0.005 0.053-0.019 0.128-0.04 0.228-0.028 0.095-0.071 0.195-0.128 0.298v0c-0.1 0.183-0.211 0.3-0.334 0.352-0.126 0.058-0.272 0.042-0.437-0.048zM162.239 129.618l2.655 1.447-0.564 1.034-3.048-1.662c0.005-0.053 0.023-0.13 0.055-0.231 0.026-0.105 0.067-0.209 0.123-0.313v0c0.1-0.183 0.211-0.3 0.334-0.352 0.12-0.045 0.268-0.02 0.445 0.077z" fill="#ea9937" data-fill-palette-color="secondary"></path><path d="M167.593 122.37v0l1.37 0.615-0.482 1.075-1.322-0.593c-0.501-0.225-0.933-0.247-1.296-0.067-0.36 0.174-0.646 0.498-0.859 0.974v0c-0.162 0.361-0.258 0.703-0.288 1.025-0.036 0.319-0.042 0.602-0.016 0.85v0l2.331 1.045-0.482 1.075-2.274-1.02c-0.19-0.085-0.329-0.193-0.415-0.323-0.086-0.13-0.147-0.317-0.182-0.562v0c-0.028-0.294-0.017-0.659 0.033-1.093 0.053-0.441 0.189-0.905 0.408-1.394v0c0.364-0.812 0.84-1.371 1.427-1.679 0.578-0.304 1.261-0.28 2.047 0.072zM168.86 129.405l-3.053-1.369 0.482-1.075 3.443 1.544c-0.001 0.053-0.009 0.129-0.023 0.23-0.021 0.097-0.055 0.2-0.104 0.307v0c-0.085 0.19-0.187 0.316-0.306 0.377-0.122 0.067-0.268 0.063-0.439-0.014zM170.792 125.096l-3.053-1.369 0.482-1.075 3.443 1.544c-0.001 0.053-0.01 0.133-0.027 0.239-0.024 0.104-0.057 0.203-0.099 0.298v0c-0.088 0.197-0.192 0.325-0.311 0.387-0.119 0.061-0.264 0.053-0.435-0.024z" fill="#ea9937" data-fill-palette-color="secondary"></path><path d="M173.489 118.229v0c-0.176 0.542-0.445 1.01-0.808 1.403-0.353 0.389-0.816 0.644-1.389 0.765-0.568 0.129-1.246 0.066-2.032-0.19v0c-0.707-0.23-1.253-0.561-1.639-0.993-0.386-0.432-0.622-0.93-0.71-1.492-0.085-0.569-0.026-1.167 0.179-1.795v0c0.14-0.43 0.321-0.806 0.542-1.128 0.231-0.327 0.464-0.584 0.7-0.77v0c0.14-0.115 0.28-0.198 0.42-0.247 0.147-0.047 0.306-0.043 0.478 0.014v0l4.333 1.409-0.365 1.12-4.322-1.406c-0.157 0.124-0.314 0.292-0.471 0.504-0.157 0.212-0.288 0.48-0.393 0.804v0c-0.204 0.628-0.177 1.196 0.081 1.704 0.259 0.508 0.768 0.886 1.528 1.133v0c0.839 0.273 1.5 0.276 1.981 0.009 0.484-0.274 0.818-0.695 1.003-1.263v0c0.135-0.416 0.175-0.773 0.118-1.069-0.064-0.298-0.153-0.551-0.269-0.757v0l1.007 0.273c0.107 0.188 0.174 0.455 0.201 0.8 0.027 0.345-0.031 0.735-0.173 1.172zM174.427 116.725v0l-1.467-0.477 0.365-1.12 1.536 0.5c0.621 0.202 1.074 0.496 1.358 0.88 0.291 0.387 0.443 0.839 0.458 1.355 0.021 0.519-0.063 1.069-0.252 1.65v0c-0.153 0.469-0.337 0.855-0.552 1.158-0.209 0.305-0.366 0.506-0.47 0.603v0c-0.249 0.226-0.496 0.299-0.74 0.22v0c-0.132-0.043-0.232-0.108-0.298-0.196-0.073-0.09-0.118-0.188-0.134-0.296v0c0.217-0.149 0.446-0.381 0.687-0.697 0.244-0.323 0.432-0.689 0.566-1.098v0c0.204-0.628 0.225-1.151 0.061-1.57-0.163-0.419-0.536-0.723-1.118-0.912z" fill="#ea9937" data-fill-palette-color="secondary"></path></g></svg></g></svg></g></svg></g><g></g></svg></g></svg></g></svg></g><defs></defs></svg><rect width="320" height="360" fill="none" stroke="none" visibility="hidden"></rect></g></svg></g></svg>